<svg width="138" height="110" viewBox="0 0 138 110" fill="none" xmlns="http://www.w3.org/2000/svg">
<path d="M29.9418 101.71C13.432 101.71 0 91.0033 0 77.8433C0 64.6833 13.432 53.9733 29.9418 53.9733C46.4516 53.9733 59.8878 64.6799 59.8878 77.8433C59.8878 91.0066 46.4516 101.71 29.9418 101.71ZM29.9418 57.3066C15.7404 57.3066 4.18182 66.5199 4.18182 77.8433C4.18182 89.1633 15.7404 98.3766 29.9418 98.3766C44.1475 98.3766 55.706 89.1633 55.706 77.8433C55.706 66.5199 44.1475 57.3066 29.9418 57.3066Z" fill="#FEFEFE"/>
<path d="M57.7969 36.6232C56.6427 36.6232 55.706 35.8766 55.706 34.9566C55.706 27.9699 48.576 22.2899 39.8151 22.2899C33.1325 22.2899 27.1191 25.6566 24.8567 30.6666C24.4678 31.5266 23.2718 31.9832 22.1803 31.6666C21.0931 31.3566 20.5327 30.3999 20.9216 29.5332C23.7778 23.2066 31.372 18.9532 39.8109 18.9532C50.8802 18.9532 59.8836 26.1299 59.8836 34.9532C59.8878 35.8766 58.9511 36.6232 57.7969 36.6232Z" fill="#FEFEFE"/>
<path d="M57.7969 79.5099C56.6427 79.5099 55.706 78.7632 55.706 77.8432V34.9566C55.706 34.0366 56.6427 33.2899 57.7969 33.2899C58.9511 33.2899 59.8878 34.0366 59.8878 34.9566V77.8432C59.8878 78.7632 58.9511 79.5099 57.7969 79.5099Z" fill="#FEFEFE"/>
<path d="M3.53365 72.4766C3.28692 72.4766 3.03601 72.4433 2.78929 72.3666C1.71038 72.0399 1.16674 71.0766 1.57656 70.2166L20.6457 30.2099C21.0555 29.3499 22.2598 28.9166 23.3429 29.2433C24.4218 29.5699 24.9655 30.5333 24.5557 31.3933L5.49074 71.3999C5.17292 72.0666 4.37838 72.4766 3.53365 72.4766Z" fill="#FEFEFE"/>
<path d="M53.3349 18.21C52.1807 18.21 51.244 17.4633 51.244 16.5433C51.244 13.83 48.4714 11.62 45.0674 11.62C42.4705 11.62 40.1329 12.93 39.2547 14.8766C38.8658 15.74 37.6656 16.1966 36.5783 15.88C35.4911 15.57 34.9265 14.6133 35.3196 13.7466C36.7958 10.4833 40.71 8.28662 45.0674 8.28662C50.7798 8.28662 55.4258 11.99 55.4258 16.5433C55.4258 17.4666 54.4891 18.21 53.3349 18.21Z" fill="#FEFEFE"/>
<path d="M53.3349 25.3566C52.1807 25.3566 51.244 24.6099 51.244 23.6899V16.5433C51.244 15.6233 52.1807 14.8766 53.3349 14.8766C54.4891 14.8766 55.4258 15.6233 55.4258 16.5433V23.6899C55.4258 24.6133 54.4891 25.3566 53.3349 25.3566Z" fill="#FEFEFE"/>
<path d="M34.3494 22.1899C34.1027 22.1899 33.8518 22.1566 33.6051 22.0799C32.5262 21.7532 31.9825 20.7899 32.3924 19.9299L35.1984 14.0399C35.6082 13.1799 36.8125 12.7432 37.8956 13.0732C38.9745 13.3999 39.5182 14.3632 39.1084 15.2232L36.3024 21.1166C35.9845 21.7832 35.1942 22.1899 34.3494 22.1899Z" fill="#FEFEFE"/>
<path d="M108.058 101.71C91.5484 101.71 78.1122 91.0034 78.1122 77.8434C78.1122 64.6834 91.5442 53.9734 108.058 53.9734C124.572 53.9734 138 64.6834 138 77.8434C138 91.0034 124.568 101.71 108.058 101.71ZM108.058 57.3067C93.8525 57.3067 82.294 66.5201 82.294 77.8434C82.294 89.1634 93.8525 98.3767 108.058 98.3767C122.26 98.3767 133.818 89.1634 133.818 77.8434C133.818 66.5201 122.26 57.3067 108.058 57.3067Z" fill="#FEFEFE"/>
<path d="M80.2031 36.6233C79.0489 36.6233 78.1122 35.8767 78.1122 34.9567C78.1122 26.1333 87.1156 18.9567 98.1849 18.9567C106.628 18.9567 114.218 23.2067 117.074 29.5367C117.467 30.4033 116.903 31.3567 115.815 31.67C114.72 31.9867 113.528 31.53 113.139 30.6667C110.877 25.6567 104.863 22.29 98.1807 22.29C89.4156 22.29 82.2898 27.9733 82.2898 34.9567C82.294 35.8767 81.3615 36.6233 80.2031 36.6233Z" fill="#FEFEFE"/>
<path d="M80.2031 79.51C79.0489 79.51 78.1122 78.7634 78.1122 77.8434V34.9567C78.1122 34.0367 79.0489 33.29 80.2031 33.29C81.3573 33.29 82.294 34.0367 82.294 34.9567V77.8434C82.294 78.7634 81.3615 79.51 80.2031 79.51Z" fill="#FEFEFE"/>
<path d="M134.466 72.4767C133.622 72.4767 132.827 72.0667 132.513 71.4034L113.444 31.3967C113.035 30.5367 113.578 29.5734 114.657 29.2467C115.744 28.9167 116.945 29.3534 117.354 30.2134L136.423 70.22C136.833 71.08 136.29 72.0434 135.211 72.37C134.964 72.44 134.713 72.4767 134.466 72.4767Z" fill="#FEFEFE"/>
<path d="M84.6651 18.21C83.5109 18.21 82.5742 17.4633 82.5742 16.5433C82.5742 11.99 87.2202 8.28662 92.9325 8.28662C97.29 8.28662 101.208 10.48 102.68 13.7466C103.073 14.6133 102.509 15.5666 101.422 15.88C100.322 16.1933 99.1383 15.74 98.7453 14.8766C97.8671 12.93 95.5294 11.62 92.9283 11.62C89.5243 11.62 86.7518 13.83 86.7518 16.5433C86.756 17.4666 85.8192 18.21 84.6651 18.21Z" fill="#FEFEFE"/>
<path d="M84.6651 25.3566C83.5109 25.3566 82.5742 24.6099 82.5742 23.6899V16.5433C82.5742 15.6233 83.5109 14.8766 84.6651 14.8766C85.8192 14.8766 86.756 15.6233 86.756 16.5433V23.6899C86.756 24.6133 85.8192 25.3566 84.6651 25.3566Z" fill="#FEFEFE"/>
<path d="M103.65 22.1899C102.806 22.1899 102.011 21.7799 101.698 21.1166L98.8916 15.2266C98.4818 14.3666 99.0254 13.4033 100.104 13.0766C101.192 12.7433 102.392 13.1799 102.802 14.0433L105.608 19.9333C106.017 20.7933 105.474 21.7566 104.395 22.0833C104.148 22.1566 103.897 22.1899 103.65 22.1899Z" fill="#FEFEFE"/>
<path d="M80.2031 60.1266H57.7969C56.6427 60.1266 55.706 59.3799 55.706 58.4599C55.706 57.5399 56.6427 56.7933 57.7969 56.7933H78.1122V42.8933H57.7969C56.6427 42.8933 55.706 42.1466 55.706 41.2266C55.706 40.3066 56.6427 39.5599 57.7969 39.5599H80.2031C81.3573 39.5599 82.294 40.3066 82.294 41.2266V58.4599C82.294 59.3799 81.3615 60.1266 80.2031 60.1266Z" fill="#FEFEFE"/>
</svg>
