<svg width="53" height="51" viewBox="0 0 53 51" fill="none" xmlns="http://www.w3.org/2000/svg">
<path d="M4.38907 14.5331C5.99356 11.3157 8.26055 8.59641 11.1176 6.33528C14.9891 3.25735 19.4299 1.40461 24.409 0.836841C30.2576 0.169458 35.7543 1.23528 40.8369 4.16379C42.0998 4.89094 43.2799 5.7177 44.4082 6.61418C44.6877 6.83333 44.6566 6.96282 44.4186 7.18196C42.1102 9.39329 39.8018 11.6046 37.5141 13.8359C37.2449 14.0948 37.1 14.0749 36.8102 13.8657C30.1024 8.89524 20.3201 10.24 15.3203 16.8142C14.4404 17.9697 13.7262 19.2148 13.2293 20.5695C13.1879 20.689 13.1051 20.7986 13.043 20.9181C11.7076 19.9419 10.3619 18.9657 9.03692 17.9796C7.48419 16.8341 5.93145 15.6886 4.38907 14.5331Z" fill="#E94335"/>
<path d="M13.0429 30.2615C13.4881 31.2078 13.8607 32.1939 14.4197 33.0804C16.7695 36.7859 20.1234 39.1666 24.5435 40.0132C28.5289 40.7802 32.359 40.2623 35.9303 38.3398C36.0545 38.28 36.1787 38.2203 36.2926 38.1605C36.3547 38.2203 36.4064 38.29 36.4685 38.3398C39.1392 40.332 41.8203 42.3242 44.491 44.3164C43.2074 45.5416 41.7478 46.5277 40.1951 47.3843C35.6922 49.8546 30.8166 50.8507 25.6822 50.4722C19.2849 49.9941 13.7676 47.5636 9.21287 43.1808C7.21502 41.2584 5.56912 39.0869 4.37869 36.6066C5.48631 35.7898 6.59393 34.983 7.70154 34.1662C9.48201 32.8613 11.2625 31.5664 13.0429 30.2615Z" fill="#34A853"/>
<path d="M44.5014 44.3165C41.8307 42.3243 39.1496 40.3321 36.4789 38.3399C36.4168 38.2901 36.3547 38.2204 36.3029 38.1606C37.2242 37.4733 38.1662 36.8059 38.9219 35.9293C40.1848 34.475 41.0232 32.8315 41.458 30.9887C41.5098 30.7596 41.4683 30.6799 41.2303 30.6899C41.106 30.6999 40.9922 30.6899 40.868 30.6899C36.6445 30.6899 32.4107 30.6799 28.1873 30.6999C27.7215 30.6999 27.618 30.5803 27.6283 30.152C27.649 27.2633 27.649 24.3747 27.6283 21.486C27.6283 21.1174 27.7318 21.0178 28.1148 21.0178C35.8578 21.0278 43.6008 21.0278 51.3541 21.0178C51.6853 21.0178 51.8199 21.0975 51.9027 21.4362C52.5342 24.1754 52.4928 26.9247 52.1098 29.6938C51.7992 31.9051 51.2402 34.0467 50.381 36.1186C49.1078 39.1766 47.2342 41.8461 44.7705 44.1372C44.6773 44.2069 44.5842 44.2567 44.5014 44.3165Z" fill="#4285F3"/>
<path d="M13.043 30.2613C11.2625 31.5662 9.48203 32.8611 7.70156 34.166C6.59394 34.9729 5.48632 35.7896 4.37871 36.6064C3.51953 35.0725 2.96054 33.4488 2.50507 31.7754C1.63554 28.5381 1.50097 25.251 1.97714 21.9539C2.3498 19.3641 3.12617 16.8738 4.37871 14.543C5.93144 15.6885 7.47382 16.8439 9.02656 17.9895C10.3619 18.9756 11.6973 19.9518 13.0326 20.9279C12.8049 21.9938 12.484 23.0396 12.3805 24.1354C12.1941 26.1275 12.3908 28.0699 12.9809 29.9824C13.0223 30.0621 13.0326 30.1617 13.043 30.2613Z" fill="#FABB06"/>
</svg>
